<svg width="30" height="30" viewBox="0 0 30 30" fill="none" xmlns="http://www.w3.org/2000/svg">
<path d="M6.64888 18.1306L5.60458 22.0291L1.7877 22.1099C0.647016 19.9942 0 17.5735 0 15.0011C0 12.5137 0.604944 10.168 1.67725 8.10254H1.67807L5.07616 8.72553L6.56473 12.1032C6.25318 13.0115 6.08337 13.9866 6.08337 15.0011C6.08348 16.1023 6.28294 17.1573 6.64888 18.1306Z" fill="#FBBB00"/>
<path d="M29.7379 12.1985C29.9102 13.1059 30 14.043 30 15.0008C30 16.0747 29.8871 17.1223 29.672 18.1328C28.9418 21.5714 27.0337 24.5739 24.3905 26.6987L24.3897 26.6979L20.1096 26.4795L19.5038 22.698C21.2577 21.6695 22.6284 20.0598 23.3504 18.1328H15.3292V12.1985H23.4674H29.7379Z" fill="#518EF8"/>
<path d="M24.3921 26.6975L24.3929 26.6983C21.8223 28.7646 18.5567 30.0009 15.002 30.0009C9.28939 30.0009 4.32275 26.8079 1.78912 22.1091L6.65029 18.1299C7.91708 21.5107 11.1785 23.9175 15.002 23.9175C16.6454 23.9175 18.1851 23.4732 19.5062 22.6976L24.3921 26.6975Z" fill="#28B446"/>
<path d="M24.5741 3.45341L19.7146 7.43183C18.3473 6.57715 16.731 6.08342 14.9993 6.08342C11.0893 6.08342 7.76691 8.60053 6.56359 12.1026L1.67687 8.10194H1.67605C4.17258 3.28858 9.20187 0 14.9993 0C18.639 0 21.9762 1.29649 24.5741 3.45341Z" fill="#F14336"/>
</svg>
