<svg width="116" height="24" viewBox="0 0 116 24" fill="none" xmlns="http://www.w3.org/2000/svg">
<g clip-path="url(#clip0_839_4263)">
<path d="M75.4596 20.2398C77.2294 18.3304 79.5327 15.1287 79.3179 11.4451C79.2036 9.66354 78.7707 8.38578 77.9914 7.5169C77.6557 7.14017 77.2453 6.84601 76.7896 6.65533C76.6926 6.61227 76.5931 6.5757 76.4917 6.54581C76.0865 6.42534 75.6651 6.37721 75.2448 6.40343C74.9737 6.41696 74.7051 6.46477 74.4448 6.54581C74.3351 6.57017 74.2283 6.60688 74.1261 6.65533C73.4817 6.89211 72.9163 7.32073 72.4983 7.88929C71.4176 9.34958 68.581 13.7305 71.5631 19.5388C70.7457 20.0806 69.8441 20.4662 68.8997 20.6778C66.3782 21.2291 64.6292 20.4259 63.5382 18.2026C60.9959 12.9748 68.0407 6.65898 68.1273 6.60422H63.7979C61.3735 9.47735 58.3533 14.614 60.7812 19.6009C61.9242 21.9556 63.6836 23.4086 65.8933 23.843C66.1475 23.9017 66.4059 23.9384 66.6657 23.9526C67.192 24.0074 67.7222 24.0074 68.2485 23.9526C68.5182 23.9325 68.7865 23.8959 69.0521 23.843L69.5577 23.7445C70.8063 23.4679 72.0025 22.9744 73.0975 22.2842C73.4438 22.7953 73.8179 23.3137 74.2473 23.8467C74.2725 23.8853 74.3003 23.9219 74.3305 23.9562H78.5213L78.4174 23.8467C77.3121 22.7592 76.3205 21.5499 75.4596 20.2398ZM73.9668 17.2133C72.765 13.5625 74.0707 11.007 74.9539 9.79498C75.0122 9.72179 75.0847 9.6627 75.1666 9.62175C75.2485 9.5808 75.3378 9.55895 75.4284 9.55768H75.4803C75.5255 9.55184 75.5714 9.5574 75.6142 9.5739C75.6569 9.5904 75.6953 9.61737 75.7263 9.65259C75.8198 9.76211 76.1488 10.2294 76.2319 11.6276C76.3532 13.7086 75.1721 15.7274 73.9668 17.2133Z" fill="#191919"/>
<path d="M17.3695 17.1439C17.3695 20.9662 14.765 23.9051 10.0961 23.9051H7.62939e-06V0H10.0684C14.5398 0 17.0474 2.83299 17.0474 6.48738C17.0474 8.67783 16.1781 10.5507 14.1866 11.7116C16.3409 12.909 17.3695 14.822 17.3695 17.1439ZM9.90566 10.4484C12.479 10.4484 13.7986 9.08306 13.7986 6.65897C13.7986 4.33709 12.479 3.13964 9.90566 3.13964H3.2176V10.4411L9.90566 10.4484ZM13.9926 17.0198C13.9926 14.6651 12.6072 13.4347 9.94028 13.4347H3.2176V20.7764H9.94375C12.6107 20.7618 13.9926 19.4329 13.9926 17.0052V17.0198Z" fill="#191919"/>
<path d="M34.2576 20.8532V23.9052H32.7163C31.1404 23.9052 30.2053 23.0217 30.046 21.4628C28.6952 23.1239 26.4232 23.9052 23.9779 23.9052C20.407 23.9052 18.4986 22.2076 18.4986 19.2578C18.4986 16.5781 20.5248 14.3767 24.3866 13.935L26.1876 13.7306C29.3394 13.3655 29.5992 12.7814 29.5992 11.9344C29.5992 10.4084 28.1168 9.45918 25.675 9.45918C24.2273 9.45918 22.4574 10.2733 21.8652 12.0147H18.6164C19.226 8.86046 22.1215 6.62256 25.8205 6.62256C29.6823 6.62256 32.8029 8.89332 32.8029 13.4385V19.9478C32.7905 20.0682 32.8033 20.19 32.8404 20.3046C32.8774 20.4192 32.9379 20.5239 33.0174 20.6112C33.097 20.6986 33.1938 20.7665 33.3009 20.8102C33.4081 20.8539 33.523 20.8723 33.6376 20.8641L34.2576 20.8532ZM30.0113 16.6804V15.1543C29.3186 15.6983 28.3385 16.1035 26.5478 16.308L24.7433 16.5124C22.1388 16.8154 21.5292 17.9727 21.5292 19.2249C21.5292 20.5465 22.5267 21.4628 24.3 21.4628C27.3444 21.4628 30.0113 19.2578 30.0113 16.6804Z" fill="#191919"/>
<path d="M50.9552 0V23.9051H47.9004V21.3496C46.5808 23.1457 44.617 23.9051 42.4627 23.9051C38.1852 23.9051 34.8706 20.5793 34.8706 15.4281C34.8706 10.2769 38.1852 6.61151 42.4627 6.61151C43.56 6.62594 44.6386 6.91278 45.611 7.44876C46.5835 7.98473 47.4224 8.75476 48.0597 9.69638V0H50.9552ZM47.9974 15.4171C47.9974 12.0256 45.8742 9.57591 42.9787 9.57591C40.0832 9.57591 38.0225 12.0183 38.0225 15.4171C38.0225 18.8159 40.1006 21.2583 42.9787 21.2583C45.8569 21.2583 47.9974 18.8159 47.9974 15.4171Z" fill="#191919"/>
<path d="M57.7472 6.61157H54.3321V23.9088H57.7472V6.61157Z" fill="#191919"/>
<path d="M102.129 6.65535C101.845 6.61507 101.559 6.59677 101.273 6.60059C100.998 6.60224 100.722 6.62052 100.449 6.65535C99.4115 6.78705 98.4142 7.15707 97.5273 7.73929C96.6404 8.32151 95.8855 9.10176 95.3159 10.025C94.8349 9.07859 94.1365 8.27432 93.2846 7.68569C92.4327 7.09706 91.4545 6.74282 90.4393 6.65535C90.1356 6.62042 89.8304 6.60215 89.5249 6.60059C89.2632 6.60199 89.0018 6.62027 88.7422 6.65535C87.8562 6.79559 87.0088 7.13314 86.2563 7.64555C85.5039 8.15795 84.8636 8.83346 84.3781 9.62706V6.60059H81.4896V23.8978H84.5444V14.8476C84.5444 12.0731 86.2415 9.69642 88.9777 9.69642C91.3259 9.69642 93.2274 11.4962 93.2274 14.5775V23.9051H96.2822V14.8476C96.2822 12.0731 97.9897 9.69642 100.719 9.69642C103.074 9.69642 104.969 11.4962 104.969 14.5775V23.9051H108.024V14.5118C108.024 9.57594 105.45 7.02043 102.129 6.65535Z" fill="#191919"/>
<path d="M56.0396 4.32248C57.1721 4.32248 58.09 3.35486 58.09 2.16124C58.09 0.967621 57.1721 0 56.0396 0C54.9072 0 53.9892 0.967621 53.9892 2.16124C53.9892 3.35486 54.9072 4.32248 56.0396 4.32248Z" fill="#191919"/>
<path d="M114.542 10.098V10.4412H114.331C114.292 10.4467 114.252 10.4427 114.215 10.4294C114.178 10.416 114.144 10.3938 114.117 10.3644C114.089 10.335 114.069 10.2993 114.056 10.26C114.044 10.2208 114.041 10.1791 114.047 10.1382V9.67454C114.051 9.63937 114.048 9.60356 114.037 9.5699C114.026 9.53625 114.009 9.50567 113.985 9.48056C113.961 9.45546 113.932 9.43651 113.9 9.42519C113.868 9.41388 113.834 9.4105 113.801 9.41534H112.911V10.4449H112.564V7.9587H113.679C113.775 7.95008 113.872 7.96258 113.963 7.9954C114.054 8.02821 114.137 8.08062 114.208 8.1493C114.278 8.21798 114.335 8.30142 114.373 8.39431C114.412 8.4872 114.431 8.58751 114.431 8.68885C114.436 8.79875 114.415 8.90818 114.371 9.00793C114.327 9.10768 114.261 9.19483 114.178 9.26202C114.245 9.30144 114.299 9.3611 114.334 9.43332C114.369 9.50554 114.382 9.58701 114.372 9.66724V10.0323C114.371 10.0441 114.372 10.056 114.376 10.0671C114.38 10.0783 114.386 10.0884 114.394 10.0968C114.402 10.1052 114.412 10.1116 114.422 10.1156C114.433 10.1196 114.444 10.1211 114.455 10.1199L114.542 10.098ZM112.911 9.08678H113.669C113.939 9.08678 114.088 8.94074 114.088 8.68154C114.088 8.42234 113.939 8.27997 113.669 8.27997H112.911V9.08678Z" fill="#191919"/>
<path d="M113.544 11.7847C113.058 11.7854 112.582 11.6338 112.178 11.3492C111.773 11.0646 111.458 10.6597 111.272 10.1859C111.086 9.7122 111.038 9.1909 111.133 8.68817C111.229 8.18544 111.464 7.72392 111.808 7.36215C112.153 7.00038 112.592 6.75465 113.069 6.65614C113.546 6.55763 114.041 6.61077 114.489 6.80881C114.938 7.00685 115.321 7.34088 115.589 7.76853C115.858 8.19619 115.999 8.69819 115.997 9.21089C115.992 9.89391 115.732 10.5474 115.273 11.0294C114.813 11.5113 114.192 11.7828 113.544 11.7847ZM113.544 6.90362C113.114 6.9029 112.693 7.0367 112.334 7.2881C111.976 7.5395 111.696 7.89724 111.53 8.31613C111.364 8.73503 111.32 9.1963 111.403 9.64168C111.486 10.0871 111.692 10.4966 111.996 10.8185C112.299 11.1405 112.686 11.3604 113.108 11.4505C113.53 11.5407 113.968 11.497 114.367 11.3249C114.765 11.1529 115.106 10.8603 115.347 10.484C115.588 10.1078 115.717 9.66474 115.719 9.21089C115.721 8.90872 115.666 8.60924 115.557 8.32961C115.448 8.04998 115.288 7.79571 115.086 7.58136C114.884 7.36701 114.644 7.19681 114.379 7.08051C114.115 6.96421 113.831 6.9041 113.544 6.90362Z" fill="#191919"/>
</g>
<defs>
<clipPath id="clip0_839_4263">
<rect width="116" height="24" fill="white"/>
</clipPath>
</defs>
</svg>
